# xmcd
#
# Track frame offsets:
#	150
#	16987
#	30898
#	47311
#	65345
#	82990
#	97836
#	113712
#	127311
#	145636
#	164031
#	177880
#	194888
#	211168
#	225829
#	248065
#	263464
#	282187
#	298925
#	314397
#
# Disc length: 4407 seconds
#
# Revision: 1
# Processed by: cddbd v1.5.2PL0 Copyright (c) Steve Scherf et al.
# Submitted via: audiograbber 1.83.01
#
DISCID=0d113514
DTITLE=Various Artist - Dance Collection
DYEAR=2004
DGENRE=Dance
TTITLE0=2 Unlimited - No Limit
TTITLE1=Snap - The Rythm Is A Dancer
TTITLE2=Off - Electrica Salsa
TTITLE3=Dr. Alban - It's My Life
TTITLE4=Technotronic - Move That Body
TTITLE5=Double You - Please Don't Go
TTITLE6=Netzwerk - Send Me An Angel
TTITLE7=Felix - Don't You Want Me
TTITLE8=Co.Ro feat. Taleesa - Because The Night
TTITLE9=Dj Space-C - Forever Young
TTITLE10=Blak Machine - How Gee
TTITLE11=Afrika Bambaataa - Just Get Up And Dance
TTITLE12=Crystal Waters - Gypsy Woman
TTITLE13=Atahualpa - Luna De Sangre
TTITLE14=Chimo Bayo - Quimica
TTITLE15=Antico - What I Gotta Do
TTITLE16=DLM - Let Yourself Go
TTITLE17=East Side Beat - Ride Like The Wind
TTITLE18=Ice MC - Rainy Days
TTITLE19=U.S.U.R.A. - Open Your Mind
EXTD=
EXTT0=
EXTT1=
EXTT2=
EXTT3=
EXTT4=
EXTT5=
EXTT6=
EXTT7=
EXTT8=
EXTT9=
EXTT10=
EXTT11=
EXTT12=
EXTT13=
EXTT14=
EXTT15=
EXTT16=
EXTT17=
EXTT18=
EXTT19=
PLAYORDER=
